# xmcd
#
# Track frame offsets: 
#        150
#        12627
#        26874
#        42933
#        54007
#        72181
#        84415
#        96325
#        110989
#        121869
#
# Disc length: 1811 seconds
#
# Revision: 0
# Processed by: cddbd v1.5.2PL0 Copyright (c) Steve Scherf et al.
# Submitted via: ExactAudioCopyFreeDBPlugin 1.0
#
DISCID=8307110a
DTITLE=Gord Downie and The Sadies - Gord Downie, The Sadies, And The Con
DTITLE=quering Sun
DYEAR=2014
DGENRE=Rock
TTITLE0=Crater
TTITLE1=The Conquering Sun
TTITLE2=Los Angeles Times
TTITLE3=One Good Fast Job
TTITLE4=It Didn't Start To Break My Heart Until This Afternoon
TTITLE5=Budget Shoes
TTITLE6=Demand Destruction
TTITLE7=Devil Enough
TTITLE8=I'm Free, Disarray Me
TTITLE9=Saved
EXTD=
EXTT0=
EXTT1=
EXTT2=
EXTT3=
EXTT4=
EXTT5=
EXTT6=
EXTT7=
EXTT8=
EXTT9=
PLAYORDER=
